# xmcd CD database file
#
# Track frame offsets:
#	150
#	29305
#	46092
#	66666
#	108290
#	131814
#	158312
#	186571
#	234949
#	264341
#	278004
#
# Disc length: 3991 seconds
#
# Revision: 0
# Processed by: cddbd v1.5.2PL0 Copyright (c) Steve Scherf et al.
# Submitted via: CDex 1.51
#
DISCID=910f950b
DTITLE=Bill Evans - Empathy
DYEAR=1962
DGENRE=Jazz
TTITLE0=The Washington twist
TTITLE1=Danny boy
TTITLE2=Let's go back to the Waltz
TTITLE3=With a song in my heart
TTITLE4=Goodbye
TTITLE5=I believe in you
TTITLE6=Goodbye [Quartet version]
TTITLE7=Danny boy [Unaccompanied piano version]
TTITLE8=Like someone in love
TTITLE9=In your own sweet way
TTITLE10=Easy to love
EXTD=YEAR: 1962
EXTT0=
EXTT1=
EXTT2=
EXTT3=
EXTT4=
EXTT5=
EXTT6=
EXTT7=
EXTT8=
EXTT9=
EXTT10=
PLAYORDER=
